<?xml version="1.0" standalone="no"?><!DOCTYPE svg PUBLIC "-//W3C//DTD SVG 1.1//EN" "http://www.w3.org/Graphics/SVG/1.1/DTD/svg11.dtd"><svg t="1709877490106" class="icon" viewBox="0 0 1024 1024" version="1.1" xmlns="http://www.w3.org/2000/svg" p-id="7334" xmlns:xlink="http://www.w3.org/1999/xlink" width="200" height="200"><path d="M305.375501 520.66637s47.665033-9.806682 54.506904-3.87706l23.262361 173.327394-38.998664 4.789309-38.770601-174.239643z m18.473051-95.330067h27.367484l7.75412 67.278396h-25.314922l-9.806682-67.278396z m-31.016481 6.841871l25.314922-2.280624 7.754121 65.68196-22.122049 3.648998-10.946994-67.050334z m66.138085-81.874388s55.419154-5.929621 57.471715 0l27.367483 327.041426H401.389755l-42.419599-327.041426z m97.382628 172.415145h53.594655v176.064142h-38.998664l-14.595991-176.064142z m26.683296-89.628508h26.683296v66.138085h-26.683296v-66.138085z m-32.612917 0h23.26236v66.138085h-23.26236v-66.138085zM128.399109 566.506904L113.803118 298.761693c-8.66637 7.75412-73.892205 29.191982-73.892205 29.191982 22.350111 76.857016 52.682405 397.05657 52.682405 397.05657 153.257906 4.78931 217.115367-62.261024 220.992428-77.769265 2.280624-9.350557 2.280624-18.929176 0-28.279733-37.402227-61.348775-185.186637-52.454343-185.186637-52.454343z m46.296659 115.85568l-9.578619-76.172829 70.927394 29.876169-61.348775 46.29666z m626.259243-63.401337c-36.946102-61.348775-184.958575-52.682405-184.958574-52.682405L601.400445 298.761693c-8.66637 7.75412-73.892205 29.191982-73.892204 29.191982 22.350111 76.857016 52.682405 397.05657 52.682405 397.05657 153.257906 4.78931 217.115367-62.261024 220.992427-77.769265 2.052561-9.350557 2.052561-18.929176-0.228062-28.279733z m-138.661915 63.401337l-9.578619-76.172829 70.927394 29.876169-61.348775 46.29666z m130.907795-161.696214s47.665033-9.806682 54.506904-3.87706l23.262361 173.327394-38.998664 4.789309-38.770601-174.239643z m18.473051-95.330067h27.367483l7.754121 67.278396h-25.314922c0-0.228062-9.806682-67.278396-9.806682-67.278396z m-31.244543 6.841871l25.314922-2.280624 7.75412 65.68196-22.122049 3.648998-10.946993-67.050334z m66.366147-81.874388s55.419154-5.929621 57.471715 0l27.367483 327.041426h-42.419599l-42.419599-327.041426z m97.154565 172.415145h53.594655v176.064142h-38.998664l-14.595991-176.064142z m26.911359-89.628508h26.683296v66.138085h-26.683296v-66.138085z m-32.612918 0h23.262361v66.138085h-23.262361v-66.138085z" fill="#03A7FD" p-id="7335"></path></svg>