<?xml version="1.0" standalone="no"?><!DOCTYPE svg PUBLIC "-//W3C//DTD SVG 1.1//EN" "http://www.w3.org/Graphics/SVG/1.1/DTD/svg11.dtd"><svg t="1709877131289" class="icon" viewBox="0 0 1024 1024" version="1.1" xmlns="http://www.w3.org/2000/svg" p-id="1330" xmlns:xlink="http://www.w3.org/1999/xlink" width="200" height="200"><path d="M794.29 291.05H238.21a72.7 72.7 0 0 0-72.7 72.7v354.81a72.7 72.7 0 0 0 72.7 72.71h200.93c19.56 0 38.7 7.08 52.74 20.7a35 35 0 0 0 48.74 0c14-13.62 33.18-20.7 52.74-20.7h200.93A72.71 72.71 0 0 0 867 718.56V363.75a72.71 72.71 0 0 0-72.71-72.7z" fill="#34BCF7" p-id="1331"></path><path d="M754.17 247.52h-6.35a1291.33 1291.33 0 0 0-186.56 13.54l-10.67 1.55a260.65 260.65 0 0 1-77-0.26 1292.79 1292.79 0 0 0-195.23-14.83 72.7 72.7 0 0 0-72.7 72.7v337A72.7 72.7 0 0 0 278.33 730h90.16A222.69 222.69 0 0 1 503 775.21a21.84 21.84 0 0 0 26.42 0A222.69 222.69 0 0 1 664 730h90.16a72.7 72.7 0 0 0 72.7-72.71v-337a72.7 72.7 0 0 0-72.69-72.77z" fill="#C5F4FF" p-id="1332"></path><path d="M516 746.7v-443a50 50 0 0 1 22.76-42c33.1-21.53 99.64-49.13 183.52-60.37a44.37 44.37 0 0 1 50.25 44v403.41a44.37 44.37 0 0 1-40.23 44.17c-52.16 4.89-142.67 19.59-195.21 63.62A12.83 12.83 0 0 1 516 746.7z" fill="#E9FAFF" p-id="1333"></path><path d="M252.57 303.58V453.9a18.68 18.68 0 0 0 26.48 17l26.09-12a19.41 19.41 0 0 1 16.23 0l26.09 12a18.67 18.67 0 0 0 26.47-17V308a18.67 18.67 0 0 0-16.18-18.51c-15.55-2.07-43.19-4.55-86.48-4.62a18.68 18.68 0 0 0-18.7 18.71z" fill="#FF7735" p-id="1334"></path></svg>